HIERARCHY
ROOT Hips
{
 OFFSET 0.000000 0.000000 0.000000
 CHANNELS 6 Xposition Yposition Zposition Yrotation Xrotation Zrotation
 JOINT Chest
 {
  OFFSET 0.000000 9.585900 0.002600
  CHANNELS 3 Yrotation Xrotation Zrotation
  JOINT Chest2
  {
   OFFSET 0.000000 9.601200 -0.005300
   CHANNELS 3 Yrotation Xrotation Zrotation
   JOINT Chest3
   {
    OFFSET 0.000000 9.561800 0.000000
    CHANNELS 3 Yrotation Xrotation Zrotation
    JOINT Chest4
    {
     OFFSET 0.000000 9.552100 0.000000
     CHANNELS 3 Yrotation Xrotation Zrotation
     JOINT Neck
     {
      OFFSET 0.000000 14.453000 0.000000
      CHANNELS 3 Yrotation Xrotation Zrotation
      JOINT Head
      {
       OFFSET 0.000000 8.936500 -0.011300
       CHANNELS 3 Yrotation Xrotation Zrotation
       End Site
       {
        OFFSET 0.000000 17.073600 -0.006000
       }
      }
     }
     JOINT RightCollar
     {
      OFFSET -2.921100 9.558500 0.000000
      CHANNELS 3 Yrotation Xrotation Zrotation
      JOINT RightShoulder
      {
       OFFSET -13.519700 0.000000 0.000000
       CHANNELS 3 Yrotation Xrotation Zrotation
       JOINT RightElbow
       {
        OFFSET 0.000000 -29.696600 0.000000
        CHANNELS 3 Yrotation Xrotation Zrotation
        JOINT RightWrist
        {
         OFFSET 0.000000 -24.004700 0.000000
         CHANNELS 3 Yrotation Xrotation Zrotation
         End Site
         {
          OFFSET 0.000000 -17.728500 0.000000
         }
        }
       }
      }
     }
     JOINT LeftCollar
     {
      OFFSET 2.921100 9.558500 0.000000
      CHANNELS 3 Yrotation Xrotation Zrotation
      JOINT LeftShoulder
      {
       OFFSET 13.519700 0.000000 0.000000
       CHANNELS 3 Yrotation Xrotation Zrotation
       JOINT LeftElbow
       {
        OFFSET 0.000000 -29.696600 0.000000
        CHANNELS 3 Yrotation Xrotation Zrotation
        JOINT LeftWrist
        {
         OFFSET 0.000000 -24.004700 0.000000
         CHANNELS 3 Yrotation Xrotation Zrotation
         End Site
         {
          OFFSET 0.000000 -17.728500 0.000000
         }
        }
       }
      }
     }
    }
   }
  }
 }
 JOINT RightHip
 {
  OFFSET -7.771700 -0.012900 -0.001300
  CHANNELS 3 Yrotation Xrotation Zrotation
  JOINT RightKnee
  {
   OFFSET 0.000000 -40.869800 0.001200
   CHANNELS 3 Yrotation Xrotation Zrotation
   JOINT RightAnkle
   {
    OFFSET 0.000000 -39.717900 0.002100
    CHANNELS 3 Yrotation Xrotation Zrotation
    JOINT RightToe
    {
     OFFSET 0.000000 -4.965400 11.033500
     CHANNELS 3 Yrotation Xrotation Zrotation
     End Site
     {
      OFFSET 0.000000 -1.423100 5.872300
     }
    }
   }
  }
 }
 JOINT LeftHip
 {
  OFFSET 7.771700 -0.012900 -0.001300
  CHANNELS 3 Yrotation Xrotation Zrotation
  JOINT LeftKnee
  {
   OFFSET 0.000000 -40.869800 0.001200
   CHANNELS 3 Yrotation Xrotation Zrotation
   JOINT LeftAnkle
   {
    OFFSET 0.000000 -39.717900 0.002100
    CHANNELS 3 Yrotation Xrotation Zrotation
    JOINT LeftToe
    {
     OFFSET 0.000000 -4.965400 11.033500
     CHANNELS 3 Yrotation Xrotation Zrotation
     End Site
     {
      OFFSET 0.000000 -1.423100 5.872300
     }
    }
   }
  }
 }
}
MOTION
Frames: 15
Frame Time: 0.008333
0.000000 85.388000 0.000000 0.000000 -5.767877 0.000000 0.000000 11.653817 0.000000 0.000000 -5.885947 0.000000 0.000000 -0.000000 0.000000 0.000000 -0.000000 0.000000 0.000000 12.528835 0.000000 0.000000 0.711642 0.000000 0.000000 -0.000000 0.000000 0.000000 0.000000 -90.000000 0.000000 -2.309062 0.000000 0.000000 2.309062 0.000000 0.000000 -0.000000 0.000000 0.000000 -0.000000 90.000000 0.000000 -2.309062 0.000000 0.000000 2.309062 0.000000 0.000000 8.520406 0.000000 0.000000 1.905762 0.000000 -0.000000 -4.658285 0.000000 0.000000 -0.000000 0.000000 0.000000 8.520406 0.000000 0.000000 1.905762 0.000000 -0.000000 -4.658285 0.000000 0.000000 -0.000000 0.000000
-14.860592 57.084583 82.913614 174.331496 -29.207352 -1.295917 2.493096 20.016528 4.382292 0.255030 2.648629 0.291850 0.435822 4.359946 0.472663 2.013531 17.579749 2.219936 -0.049657 10.346259 -0.201261 0.021497 -16.500328 -0.411903 2.630375 -3.445655 -1.474561 17.450620 -18.491438 -22.445827 143.366204 -86.952468 -99.168293 12.274228 -15.594645 -40.476928 -7.595852 -5.174010 -3.111766 4.655887 -7.007557 0.367526 30.203439 -74.815311 -62.915694 -10.324853 10.452744 1.524257 7.951458 -42.551648 -4.534600 -1.387579 65.614137 3.872218 6.603565 5.917806 5.140931 -0.098846 0.273498 -0.118798 -14.428215 -48.591626 6.427986 31.410772 65.684100 38.878468 -14.435709 29.502488 -10.618954 0.097516 -14.429178 -7.247924
-14.862677 57.082638 82.914327 174.330991 -29.200428 -1.282627 2.477519 19.995565 4.376131 0.253372 2.643165 0.292342 0.427674 4.338272 0.477351 2.011291 17.580252 2.218153 -0.133038 10.354674 -0.247845 -0.114719 -16.481402 -0.470721 2.622716 -3.415849 -1.464003 17.458323 -18.480076 -22.453912 143.594287 -86.918343 -99.414811 12.272436 -15.601241 -40.495418 -7.628341 -5.183997 -3.119600 4.614469 -7.026317 0.439076 30.309080 -74.809265 -63.011577 -10.345170 10.452224 1.505840 7.970502 -42.555941 -4.575841 -1.338301 65.620296 3.939170 6.593182 5.908658 5.141613 -0.091823 0.268290 -0.110969 -14.421098 -48.607892 6.432909 31.390060 65.684038 38.841109 -14.473771 29.541864 -10.601419 0.093902 -14.427515 -7.261347
-14.865357 57.081270 82.913924 174.324153 -29.199647 -1.264672 2.468342 19.979364 4.370214 0.251827 2.637477 0.292973 0.428526 4.346126 0.470054 1.996757 17.550587 2.228068 -0.219393 10.359763 -0.298441 -0.270573 -16.467120 -0.531360 2.619726 -3.387798 -1.454855 17.462261 -18.466375 -22.458229 143.831268 -86.884019 -99.670683 12.262183 -15.602600 -40.497916 -7.628913 -5.166504 -3.140082 4.569805 -7.069705 0.498474 30.358699 -74.811291 -63.079860 -10.366006 10.446397 1.491042 7.993389 -42.554148 -4.613339 -1.316230 65.628127 3.971871 6.600046 5.897211 5.148611 -0.092707 0.263565 -0.104181 -14.407160 -48.623415 6.435442 31.379450 65.685452 38.810214 -14.518693 29.604721 -10.571963 0.077870 -14.422067 -7.280797
-14.865036 57.078950 82.915971 174.333781 -29.182326 -1.277170 2.455795 19.949493 4.384799 0.250132 2.627080 0.296505 0.417245 4.304915 0.487155 1.991794 17.569308 2.221178 -0.321337 10.362202 -0.356290 -0.447573 -16.457288 -0.590537 2.610573 -3.359805 -1.451691 17.463915 -18.451853 -22.458387 144.000826 -86.863983 -99.856104 12.246961 -15.596691 -40.468139 -7.632166 -5.145849 -3.167718 4.522374 -7.122148 0.559042 30.418324 -74.807373 -63.158012 -10.389336 10.438377 1.471728 7.983271 -42.567565 -4.616281 -1.310881 65.628630 3.983867 6.605850 5.889005 5.158490 -0.093668 0.259900 -0.099617 -14.428104 -48.651653 6.495691 31.343555 65.702864 38.739240 -14.552858 29.633656 -10.558361 0.087859 -14.430145 -7.274431
-14.870389 57.078504 82.914222 174.322026 -29.184520 -1.246455 2.452411 19.936997 4.368229 0.248912 2.620980 0.297402 0.415258 4.295337 0.488626 1.982888 17.550026 2.227489 -0.432649 10.366478 -0.412012 -0.644068 -16.454006 -0.647530 2.609220 -3.317460 -1.458706 17.451732 -18.450792 -22.445937 144.068265 -86.850418 -99.935457 12.270075 -15.663421 -40.578816 -7.628454 -5.108443 -3.195392 4.466142 -7.188377 0.621671 30.501501 -74.802041 -63.258816 -10.415338 10.429641 1.443963 8.017881 -42.562838 -4.663006 -1.290706 65.640729 4.005593 6.612168 5.876342 5.167329 -0.094406 0.256321 -0.095969 -14.387133 -48.661241 6.472076 31.354712 65.699182 38.722637 -14.545737 29.665943 -10.500477 0.068267 -14.437287 -7.295799
-14.871218 57.078389 82.913040 174.320229 -29.183005 -1.250878 2.451390 19.918446 4.387476 0.249641 2.627872 0.288635 0.412328 4.277925 0.497172 1.974052 17.495937 2.251525 -0.557917 10.401839 -0.487748 -0.857668 -16.458972 -0.703831 2.606016 -3.243166 -1.482086 17.437168 -18.448647 -22.429862 143.921882 -86.837813 -99.774521 12.288940 -15.728143 -40.681942 -7.622617 -5.042942 -3.245665 4.411706 -7.253770 0.682844 30.600452 -74.800238 -63.379616 -10.445308 10.422162 1.411531 8.012872 -42.561094 -4.656895 -1.290176 65.644218 4.000944 6.618395 5.870980 5.170404 -0.095814 0.252096 -0.091304 -14.376886 -48.672495 6.508500 31.325777 65.715344 38.666616 -14.574883 29.687023 -10.472469 0.069946 -14.432272 -7.297097
-14.872000 57.077871 82.913128 174.321057 -29.169424 -1.260499 2.451810 19.894345 4.409712 0.248217 2.629407 0.281841 0.410849 4.262825 0.506824 1.966637 17.469954 2.265928 -0.691051 10.407274 -0.554596 -1.086675 -16.469802 -0.761477 2.582190 -3.226649 -1.458051 17.447547 -18.409581 -22.441265 144.288050 -86.816566 -100.159798 12.293148 -15.764640 -40.726135 -7.630717 -5.034446 -3.276617 4.374156 -7.289257 0.737448 30.711015 -74.808018 -63.514552 -10.478635 10.417415 1.379578 8.000735 -42.571375 -4.642909 -1.290240 65.645232 3.990911 6.620408 5.866387 5.175779 -0.091034 0.246166 -0.080490 -14.370266 -48.692811 6.550971 31.291499 65.727942 38.614233 -14.624303 29.694951 -10.468118 0.070625 -14.404499 -7.283162
-14.875457 57.078891 82.910629 174.321619 -29.167975 -1.255441 2.450842 19.884226 4.419693 0.242386 2.622544 0.280930 0.412673 4.256627 0.511174 1.959411 17.473899 2.260727 -0.829687 10.382611 -0.602779 -1.331788 -16.482077 -0.822265 2.575344 -3.221188 -1.450444 17.427544 -18.398289 -22.426120 144.566707 -86.788370 -100.447647 12.302459 -15.814391 -40.792302 -7.633568 -5.037830 -3.289109 4.331119 -7.335689 0.790281 30.829921 -74.826566 -63.658015 -10.515248 10.412328 1.349390 7.994206 -42.570600 -4.629775 -1.298107 65.653582 3.950643 6.614100 5.857188 5.185276 -0.088502 0.239456 -0.064894 -14.340240 -48.702675 6.559347 31.277565 65.736024 38.575641 -14.640458 29.700894 -10.432660 0.070948 -14.403096 -7.284071
-14.878934 57.080686 82.907390 174.321760 -29.168247 -1.252655 2.452231 19.876054 4.433805 0.241735 2.617362 0.281364 0.408833 4.254318 0.509898 1.953609 17.471908 2.260436 -0.977693 10.360562 -0.654113 -1.593292 -16.493243 -0.886357 2.567401 -3.217770 -1.434075 17.427358 -18.377669 -22.436173 145.053480 -86.775565 -100.963443 12.326667 -15.870095 -40.860350 -7.637915 -5.041426 -3.304598 4.293300 -7.374624 0.840516 30.957003 -74.854405 -63.806252 -10.558530 10.405187 1.317360 7.994896 -42.565743 -4.624083 -1.289807 65.659694 3.939507 6.603465 5.847609 5.184605 -0.093016 0.233295 -0.051810 -14.306471 -48.709376 6.565932 31.256810 65.747045 38.534864 -14.650681 29.698300 -10.402793 0.061814 -14.381296 -7.275540
-14.889951 57.084513 82.900160 174.306111 -29.187324 -1.198115 2.452224 19.888904 4.401519 0.239492 2.612143 0.284128 0.406706 4.249648 0.511396 1.945552 17.453927 2.272597 -1.137661 10.362355 -0.727154 -1.868748 -16.502928 -0.954669 2.558926 -3.197705 -1.426665 17.429929 -18.352735 -22.453563 146.081046 -86.747577 -102.058722 12.346135 -15.902949 -40.883001 -7.638567 -5.019677 -3.341577 4.258304 -7.413986 0.883022 31.084811 -74.894895 -63.954132 -10.606750 10.398071 1.289760 8.048793 -42.543027 -4.679552 -1.253786 65.681294 3.951394 6.581922 5.828665 5.182443 -0.084443 0.230105 -0.039451 -14.218754 -48.706068 6.500107 31.328044 65.745465 38.543466 -14.575194 29.696260 -10.259880 -0.019567 -14.352297 -7.299006
-14.893260 57.087188 82.896999 174.317834 -29.181326 -1.208298 2.447437 19.878373 4.422660 0.236939 2.603318 0.286007 0.405001 4.246158 0.519123 1.934616 17.441617 2.277652 -1.303531 10.366390 -0.801553 -2.155272 -16.511659 -1.027920 2.555187 -3.179930 -1.427025 17.383948 -18.343380 -22.425199 146.378230 -86.695808 -102.347794 12.374427 -15.948338 -40.940611 -7.640421 -5.005125 -3.377093 4.238467 -7.435868 0.910523 31.194277 -74.958111 -64.087374 -10.658338 10.391000 1.266189 8.033273 -42.543032 -4.656864 -1.230138 65.683903 3.944867 6.562007 5.820076 5.179785 -0.077869 0.225905 -0.026751 -14.218636 -48.711802 6.511915 31.302437 65.752131 38.514718 -14.573880 29.684613 -10.270369 -0.025476 -14.322756 -7.274275
-14.896409 57.090507 82.893641 174.329152 -29.174459 -1.221954 2.446000 19.870040 4.448649 0.238246 2.595299 0.304799 0.397031 4.249927 0.500011 1.925560 17.414535 2.327776 -1.480478 10.381827 -0.915576 -2.450868 -16.517580 -1.103847 2.555809 -3.158037 -1.465305 17.353951 -18.331156 -22.404534 146.769348 -86.644280 -102.759497 12.388859 -15.986315 -40.977600 -7.639135 -5.010307 -3.446712 4.238146 -7.417434 0.919597 31.287232 -75.044645 -64.203701 -10.716176 10.383298 1.236045 8.018152 -42.543192 -4.631167 -1.204602 65.684470 3.941366 6.546656 5.813742 5.176629 -0.077789 0.220024 -0.011455 -14.164833 -48.722931 6.528848 31.199601 65.778266 38.400949 -14.600944 29.666933 -10.249473 -0.004357 -14.291459 -7.255131
-14.909699 57.096115 82.885640 174.320854 -29.189983 -1.165269 2.439395 19.887065 4.407143 0.238595 2.593520 0.310383 0.391406 4.250902 0.487517 1.923466 17.405265 2.353253 -1.656184 10.383925 -0.996353 -2.754303 -16.513853 -1.180878 2.552803 -3.158378 -1.471021 17.340280 -18.316028 -22.397258 146.817926 -86.618604 -102.809028 12.422726 -16.039824 -41.063537 -7.643687 -5.030331 -3.481439 4.218582 -7.422288 0.947982 31.414155 -75.098001 -64.316581 -10.777453 10.376003 1.200958 8.080819 -42.521389 -4.699372 -1.189830 65.706468 3.934358 6.544764 5.794583 5.169186 -0.082958 0.214573 0.015262 -14.035124 -48.722168 6.448323 31.174966 65.796746 38.312029 -14.500202 29.647971 -10.095297 -0.069951 -14.227083 -7.265301
-14.919533 57.101207 82.879941 174.328484 -29.190519 -1.139864 2.423662 19.888672 4.380830 0.243332 2.592253 0.324103 0.386671 4.247615 0.490271 1.915018 17.405511 2.347267 -1.830457 10.389640 -1.064337 -3.064582 -16.495190 -1.259168 2.547748 -3.161647 -1.463164 17.343937 -18.301835 -22.407448 146.995259 -86.604256 -103.002105 12.456264 -16.087283 -41.157926 -7.664799 -5.061807 -3.489258 4.227176 -7.415377 0.949405 31.495105 -75.152037 -64.379148 -10.834249 10.368392 1.168653 8.113904 -42.515700 -4.737491 -1.189010 65.722191 3.916449 6.561693 5.789917 5.134489 -0.087723 0.200817 0.058761 -13.983270 -48.728321 6.406322 31.169354 65.800781 38.270569 -14.441135 29.642644 -10.015549 -0.113186 -14.195236 -7.266837
